<mxfile host="app.diagrams.net" modified="2023-05-07T00:57:05.165Z" agent="Mozilla/5.0 (Windows NT 10.0; Win64; x64) AppleWebKit/537.36 (KHTML, like Gecko) Chrome/112.0.0.0 Safari/537.36" etag="4kmbtGE1bwuJWcWgoV6d" version="21.2.9" type="device">
  <diagram id="Ue0m_00hYuM2AanBgo_J" name="페이지-1">
    <mxGraphModel dx="1048" dy="1057" grid="1" gridSize="10" guides="1" tooltips="1" connect="1" arrows="1" fold="1" page="1" pageScale="1" pageWidth="827" pageHeight="1169" math="0" shadow="0">
      <root>
        <object label="" ReadJSON="" id="0">
          <mxCell />
        </object>
        <mxCell id="1" parent="0" />
        <mxCell id="vgwewGPwWs4jTi2JDRfR-20" value="CLASS" style="swimlane;fontStyle=1;align=center;verticalAlign=top;childLayout=stackLayout;horizontal=1;startSize=26;horizontalStack=0;resizeParent=1;resizeParentMax=0;resizeLast=0;collapsible=1;marginBottom=0;whiteSpace=wrap;html=1;" parent="1" vertex="1">
          <mxGeometry x="20" y="75" width="160" height="82" as="geometry" />
        </mxCell>
        <mxCell id="vgwewGPwWs4jTi2JDRfR-21" value="+ FIELD" style="text;strokeColor=none;fillColor=none;align=left;verticalAlign=top;spacingLeft=4;spacingRight=4;overflow=hidden;rotatable=0;points=[[0,0.5],[1,0.5]];portConstraint=eastwest;whiteSpace=wrap;html=1;" parent="vgwewGPwWs4jTi2JDRfR-20" vertex="1">
          <mxGeometry y="26" width="160" height="22" as="geometry" />
        </mxCell>
        <mxCell id="vgwewGPwWs4jTi2JDRfR-22" value="" style="line;strokeWidth=1;fillColor=none;align=left;verticalAlign=middle;spacingTop=-1;spacingLeft=3;spacingRight=3;rotatable=0;labelPosition=right;points=[];portConstraint=eastwest;strokeColor=inherit;" parent="vgwewGPwWs4jTi2JDRfR-20" vertex="1">
          <mxGeometry y="48" width="160" height="8" as="geometry" />
        </mxCell>
        <mxCell id="vgwewGPwWs4jTi2JDRfR-23" value="+ METHOD" style="text;strokeColor=none;fillColor=none;align=left;verticalAlign=top;spacingLeft=4;spacingRight=4;overflow=hidden;rotatable=0;points=[[0,0.5],[1,0.5]];portConstraint=eastwest;whiteSpace=wrap;html=1;" parent="vgwewGPwWs4jTi2JDRfR-20" vertex="1">
          <mxGeometry y="56" width="160" height="26" as="geometry" />
        </mxCell>
        <mxCell id="vgwewGPwWs4jTi2JDRfR-25" value="시작 화면" style="swimlane;fontStyle=1;align=center;verticalAlign=top;childLayout=stackLayout;horizontal=1;startSize=26;horizontalStack=0;resizeParent=1;resizeParentMax=0;resizeLast=0;collapsible=1;marginBottom=0;whiteSpace=wrap;html=1;" parent="1" vertex="1">
          <mxGeometry x="314" y="360" width="200" height="160" as="geometry" />
        </mxCell>
        <mxCell id="vgwewGPwWs4jTi2JDRfR-26" value="+ btn 처음부터&lt;br&gt;+ btn 게임시작&lt;br&gt;+ btn 그만두기&lt;br&gt;+ 제목 TEXT" style="text;strokeColor=none;fillColor=none;align=left;verticalAlign=top;spacingLeft=4;spacingRight=4;overflow=hidden;rotatable=0;points=[[0,0.5],[1,0.5]];portConstraint=eastwest;whiteSpace=wrap;html=1;" parent="vgwewGPwWs4jTi2JDRfR-25" vertex="1">
          <mxGeometry y="26" width="200" height="64" as="geometry" />
        </mxCell>
        <mxCell id="vgwewGPwWs4jTi2JDRfR-27" value="" style="line;strokeWidth=1;fillColor=none;align=left;verticalAlign=middle;spacingTop=-1;spacingLeft=3;spacingRight=3;rotatable=0;labelPosition=right;points=[];portConstraint=eastwest;strokeColor=inherit;" parent="vgwewGPwWs4jTi2JDRfR-25" vertex="1">
          <mxGeometry y="90" width="200" height="8" as="geometry" />
        </mxCell>
        <mxCell id="vgwewGPwWs4jTi2JDRfR-28" value="+ TouchTIitle() // 제작자 화면 이동&lt;br&gt;+ ScreenOn()&lt;br&gt;+ ScreenOff()" style="text;strokeColor=none;fillColor=none;align=left;verticalAlign=top;spacingLeft=4;spacingRight=4;overflow=hidden;rotatable=0;points=[[0,0.5],[1,0.5]];portConstraint=eastwest;whiteSpace=wrap;html=1;" parent="vgwewGPwWs4jTi2JDRfR-25" vertex="1">
          <mxGeometry y="98" width="200" height="62" as="geometry" />
        </mxCell>
        <mxCell id="vgwewGPwWs4jTi2JDRfR-30" value="NAMESPACE" style="shape=umlFrame;whiteSpace=wrap;html=1;pointerEvents=0;width=90;height=38;" parent="1" vertex="1">
          <mxGeometry width="200" height="208" as="geometry" />
        </mxCell>
        <mxCell id="vgwewGPwWs4jTi2JDRfR-31" value="JSON" style="swimlane;fontStyle=1;align=center;verticalAlign=top;childLayout=stackLayout;horizontal=1;startSize=26;horizontalStack=0;resizeParent=1;resizeParentMax=0;resizeLast=0;collapsible=1;marginBottom=0;whiteSpace=wrap;html=1;" parent="1" vertex="1">
          <mxGeometry x="500" y="66" width="160" height="100" as="geometry" />
        </mxCell>
        <mxCell id="vgwewGPwWs4jTi2JDRfR-34" value="+ CreateJSON(path)&lt;br&gt;+ InputJSON(key, value)&lt;br&gt;+ WriteJSON(path)&lt;br&gt;+ ReadJSON(path)" style="text;strokeColor=none;fillColor=none;align=left;verticalAlign=top;spacingLeft=4;spacingRight=4;overflow=hidden;rotatable=0;points=[[0,0.5],[1,0.5]];portConstraint=eastwest;whiteSpace=wrap;html=1;" parent="vgwewGPwWs4jTi2JDRfR-31" vertex="1">
          <mxGeometry y="26" width="160" height="74" as="geometry" />
        </mxCell>
        <mxCell id="vgwewGPwWs4jTi2JDRfR-35" value="MODULE" style="shape=umlFrame;whiteSpace=wrap;html=1;pointerEvents=0;width=90;height=38;" parent="1" vertex="1">
          <mxGeometry x="490" width="337" height="240" as="geometry" />
        </mxCell>
        <mxCell id="pPsOl5LPwn0ToeVwiGtm-1" value="Object" style="swimlane;fontStyle=1;align=center;verticalAlign=top;childLayout=stackLayout;horizontal=1;startSize=26;horizontalStack=0;resizeParent=1;resizeParentMax=0;resizeLast=0;collapsible=1;marginBottom=0;whiteSpace=wrap;html=1;" vertex="1" parent="1">
          <mxGeometry x="670" y="60" width="140" height="120" as="geometry" />
        </mxCell>
        <mxCell id="pPsOl5LPwn0ToeVwiGtm-2" value="+ text // 생성자 초기화&lt;br&gt;+ item // 생성자 초기화" style="text;strokeColor=none;fillColor=none;align=left;verticalAlign=top;spacingLeft=4;spacingRight=4;overflow=hidden;rotatable=0;points=[[0,0.5],[1,0.5]];portConstraint=eastwest;whiteSpace=wrap;html=1;" vertex="1" parent="pPsOl5LPwn0ToeVwiGtm-1">
          <mxGeometry y="26" width="140" height="44" as="geometry" />
        </mxCell>
        <mxCell id="pPsOl5LPwn0ToeVwiGtm-3" value="" style="line;strokeWidth=1;fillColor=none;align=left;verticalAlign=middle;spacingTop=-1;spacingLeft=3;spacingRight=3;rotatable=0;labelPosition=right;points=[];portConstraint=eastwest;strokeColor=inherit;" vertex="1" parent="pPsOl5LPwn0ToeVwiGtm-1">
          <mxGeometry y="70" width="140" height="8" as="geometry" />
        </mxCell>
        <mxCell id="pPsOl5LPwn0ToeVwiGtm-4" value="+ PrintText(text)&lt;br&gt;+ GetItem(item)" style="text;strokeColor=none;fillColor=none;align=left;verticalAlign=top;spacingLeft=4;spacingRight=4;overflow=hidden;rotatable=0;points=[[0,0.5],[1,0.5]];portConstraint=eastwest;whiteSpace=wrap;html=1;" vertex="1" parent="pPsOl5LPwn0ToeVwiGtm-1">
          <mxGeometry y="78" width="140" height="42" as="geometry" />
        </mxCell>
        <mxCell id="pPsOl5LPwn0ToeVwiGtm-11" value="" style="endArrow=none;dashed=1;html=1;dashPattern=1 3;strokeWidth=2;rounded=0;" edge="1" parent="1" source="pPsOl5LPwn0ToeVwiGtm-10" target="vgwewGPwWs4jTi2JDRfR-34">
          <mxGeometry width="50" height="50" relative="1" as="geometry">
            <mxPoint x="390" y="570" as="sourcePoint" />
            <mxPoint x="440" y="520" as="targetPoint" />
          </mxGeometry>
        </mxCell>
        <mxCell id="pPsOl5LPwn0ToeVwiGtm-23" value="Main" style="swimlane;whiteSpace=wrap;html=1;" vertex="1" parent="1">
          <mxGeometry y="600" width="820" height="470" as="geometry" />
        </mxCell>
        <mxCell id="pPsOl5LPwn0ToeVwiGtm-10" value="JSON" style="html=1;whiteSpace=wrap;" vertex="1" parent="pPsOl5LPwn0ToeVwiGtm-23">
          <mxGeometry x="680" y="60" width="110" height="50" as="geometry" />
        </mxCell>
        <mxCell id="vgwewGPwWs4jTi2JDRfR-37" value="Map 0" style="html=1;whiteSpace=wrap;" parent="pPsOl5LPwn0ToeVwiGtm-23" vertex="1">
          <mxGeometry x="40" y="50" width="110" height="50" as="geometry" />
        </mxCell>
        <mxCell id="vgwewGPwWs4jTi2JDRfR-39" value="Map 1" style="html=1;whiteSpace=wrap;" parent="pPsOl5LPwn0ToeVwiGtm-23" vertex="1">
          <mxGeometry x="80" y="80" width="110" height="50" as="geometry" />
        </mxCell>
        <mxCell id="vgwewGPwWs4jTi2JDRfR-38" value="Map 2" style="html=1;whiteSpace=wrap;" parent="pPsOl5LPwn0ToeVwiGtm-23" vertex="1">
          <mxGeometry x="130" y="110" width="110" height="50" as="geometry" />
        </mxCell>
        <mxCell id="pPsOl5LPwn0ToeVwiGtm-28" value="시작 화면" style="rounded=0;whiteSpace=wrap;html=1;" vertex="1" parent="pPsOl5LPwn0ToeVwiGtm-23">
          <mxGeometry x="350" y="60" width="120" height="60" as="geometry" />
        </mxCell>
        <mxCell id="vgwewGPwWs4jTi2JDRfR-41" value="Map" style="swimlane;fontStyle=1;align=center;verticalAlign=top;childLayout=stackLayout;horizontal=1;startSize=26;horizontalStack=0;resizeParent=1;resizeParentMax=0;resizeLast=0;collapsible=1;marginBottom=0;whiteSpace=wrap;html=1;" parent="1" vertex="1">
          <mxGeometry x="70" y="360" width="120" height="160" as="geometry" />
        </mxCell>
        <mxCell id="vgwewGPwWs4jTi2JDRfR-42" value="+ 시나리오 번호&lt;br&gt;+ BGM&lt;br&gt;+ 배경&lt;br&gt;+ 인벤토리&lt;br&gt;+ Object (객체)" style="text;strokeColor=none;fillColor=none;align=left;verticalAlign=top;spacingLeft=4;spacingRight=4;overflow=hidden;rotatable=0;points=[[0,0.5],[1,0.5]];portConstraint=eastwest;whiteSpace=wrap;html=1;" parent="vgwewGPwWs4jTi2JDRfR-41" vertex="1">
          <mxGeometry y="26" width="120" height="74" as="geometry" />
        </mxCell>
        <mxCell id="vgwewGPwWs4jTi2JDRfR-43" value="" style="line;strokeWidth=1;fillColor=none;align=left;verticalAlign=middle;spacingTop=-1;spacingLeft=3;spacingRight=3;rotatable=0;labelPosition=right;points=[];portConstraint=eastwest;strokeColor=inherit;" parent="vgwewGPwWs4jTi2JDRfR-41" vertex="1">
          <mxGeometry y="100" width="120" height="8" as="geometry" />
        </mxCell>
        <mxCell id="vgwewGPwWs4jTi2JDRfR-44" value="+ MapNumJSON()&lt;br&gt;+ MapReset()&lt;br&gt;+ NextStage()" style="text;strokeColor=none;fillColor=none;align=left;verticalAlign=top;spacingLeft=4;spacingRight=4;overflow=hidden;rotatable=0;points=[[0,0.5],[1,0.5]];portConstraint=eastwest;whiteSpace=wrap;html=1;" parent="vgwewGPwWs4jTi2JDRfR-41" vertex="1">
          <mxGeometry y="108" width="120" height="52" as="geometry" />
        </mxCell>
        <mxCell id="pPsOl5LPwn0ToeVwiGtm-27" value="" style="endArrow=none;dashed=1;html=1;dashPattern=1 3;strokeWidth=2;rounded=0;entryX=0.483;entryY=0.962;entryDx=0;entryDy=0;entryPerimeter=0;exitX=0.327;exitY=0.06;exitDx=0;exitDy=0;exitPerimeter=0;" edge="1" parent="1" source="vgwewGPwWs4jTi2JDRfR-37" target="vgwewGPwWs4jTi2JDRfR-44">
          <mxGeometry width="50" height="50" relative="1" as="geometry">
            <mxPoint x="270" y="650" as="sourcePoint" />
            <mxPoint x="320" y="600" as="targetPoint" />
          </mxGeometry>
        </mxCell>
        <mxCell id="pPsOl5LPwn0ToeVwiGtm-29" value="" style="endArrow=none;dashed=1;html=1;dashPattern=1 3;strokeWidth=2;rounded=0;" edge="1" parent="1" source="pPsOl5LPwn0ToeVwiGtm-28" target="vgwewGPwWs4jTi2JDRfR-28">
          <mxGeometry width="50" height="50" relative="1" as="geometry">
            <mxPoint x="270" y="650" as="sourcePoint" />
            <mxPoint x="320" y="600" as="targetPoint" />
          </mxGeometry>
        </mxCell>
      </root>
    </mxGraphModel>
  </diagram>
</mxfile>
